<?xml version="1.0" encoding="UTF-8"?>
<svg xmlns="http://www.w3.org/2000/svg" xmlns:xlink="http://www.w3.org/1999/xlink" width="503px" height="90px" viewBox="0 0 503 90" version="1.1">
  <!-- Generator: Sketch 51.3 (57544) - http://www.bohemiancoding.com/sketch -->
  <title>Group 23</title>
  <desc>Created with Sketch.</desc>
  <defs>
    <polygon id="path-1" points="0.68425 0.122 13.94175 0.122 13.94175 88.5234 0.68425 88.5234"></polygon>
    <polygon id="path-3" points="0 0.5246 27.9349 0.5246 27.9349 63.8846 0 63.8846"></polygon>
  </defs>
  <g id="Page-1" stroke="none" stroke-width="1" fill="none" fill-rule="evenodd">
    <g id="Group-23" transform="translate(0.000000, -1.000000)">
      <path d="M53.5977,76.6269 C53.0867,75.9449 52.4627,75.9449 51.6097,76.5139 C46.8407,79.9759 41.0507,81.7929 35.1467,81.6799 L34.1807,81.6799 L34.1807,90.8779 C43.2077,90.8779 50.4187,88.2669 55.8127,83.0989 C56.8907,82.1909 57.0617,81.3399 56.3237,80.4869 L53.5977,76.6269 Z" id="Fill-1" fill="#274559"></path>
      <path d="M467.7241,79.9199 C457.4491,78.5579 449.4981,69.7569 449.4981,59.0829 C449.4981,48.4089 457.4491,39.6089 467.7241,38.2449 L467.7241,27.5149 C451.5421,28.9349 438.8271,42.5039 438.8271,59.0829 C438.8271,75.6609 451.5421,89.2319 467.7241,90.6499 L467.7241,79.9199 Z" id="Fill-3" fill="#274559"></path>
      <path d="M80.5664,89.4018 C79.4314,89.4018 78.8064,88.8348 78.8064,87.6418 L78.8064,30.4688 C78.8064,29.3318 79.3734,28.7088 80.5664,28.7088 L87.8914,28.7088 C89.0254,28.7088 89.6514,29.3318 89.6514,30.5818 L89.9914,38.2458 C94.1354,30.9218 100.6654,27.2318 109.6924,27.2318 C116.3934,27.2318 121.7304,29.3888 125.7034,33.7038 C129.6784,38.0188 131.7224,44.0938 131.7224,51.9298 L131.7224,87.5848 C131.7224,88.7198 131.1544,89.3458 130.0184,89.3458 L122.2414,89.3458 C121.1604,89.3458 120.6494,88.7778 120.6494,87.5848 L120.6494,53.6898 C120.6494,48.5798 119.4004,44.6048 116.9034,41.7668 C114.4054,38.9278 110.8284,37.5078 106.2294,37.5078 C101.5164,37.5078 97.6554,38.9848 94.6464,41.8788 C91.6364,44.7758 90.1044,48.7488 90.1044,53.6898 L90.1044,87.5848 C90.1044,88.7198 89.5934,89.3458 88.5144,89.3458 L80.5664,89.4018 Z" id="Fill-5" fill="#274559"></path>
      <path d="M179.8682,80.6011 C185.8292,80.6011 190.6552,78.6701 194.4032,74.6971 C198.1502,70.7781 200.0232,65.6121 200.0232,59.1401 C200.0232,52.7251 198.1502,47.5001 194.4032,43.4691 C190.6552,39.4371 185.8292,37.4521 179.8682,37.4521 C173.8492,37.4521 168.9102,39.4371 165.0502,43.4691 C161.1892,47.5001 159.2582,52.7251 159.2582,59.0841 C159.2582,65.4411 161.1892,70.6091 165.0502,74.6401 C168.9672,78.6131 173.9072,80.6011 179.8682,80.6011 M177.9372,90.8771 C169.3082,90.8771 162.2112,87.8691 156.6472,81.8501 C151.1392,75.8311 148.3572,68.2231 148.3572,59.0841 C148.3572,49.9991 151.1392,42.4471 156.6472,36.3721 C162.1532,30.2981 169.2502,27.2891 177.9372,27.2891 C188.1582,27.2891 195.5962,31.4331 200.3632,39.7791 L200.5912,30.5231 C200.5912,29.3891 201.1602,28.8221 202.1822,28.8221 L209.3352,28.8221 C210.4702,28.8221 211.0962,29.3891 211.0962,30.5231 L211.0962,87.6421 C211.0962,88.7771 210.5262,89.4021 209.3352,89.4021 L202.1822,89.4021 C201.1022,89.4021 200.5912,88.8331 200.5912,87.6421 L200.3632,78.6131 C195.5392,86.7891 188.0442,90.8771 177.9372,90.8771" id="Fill-7" fill="#274559"></path>
      <g id="Group-11" transform="translate(232.000000, 0.878400)">
        <mask id="mask-2" fill="white">
          <use xlink:href="#path-1"></use>
        </mask>
        <g id="Clip-10"></g>
        <path d="M3.3955,88.5234 C2.3175,88.5234 1.8065,87.9564 1.8065,86.7634 L1.8065,29.5904 C1.8065,28.4534 2.3175,27.8864 3.3955,27.8864 L11.1745,27.8864 C12.3095,27.8864 12.8765,28.4534 12.8765,29.5904 L12.8765,86.7634 C12.8765,87.8994 12.3095,88.5234 11.1745,88.5234 L3.3955,88.5234 Z M7.3705,13.5224 C5.5525,13.5794 3.8505,12.8414 2.6005,11.5354 C0.0455,8.9224 0.0455,4.7214 2.6005,2.1104 C5.1555,-0.5026 9.4145,-0.5596 12.0255,2.0524 C14.5805,4.7214 14.5805,8.9224 12.0255,11.5914 C10.8325,12.8414 9.1305,13.5224 7.3705,13.5224 Z" id="Fill-9" fill="#274559" mask="url(#mask-2)"></path>
      </g>
      <path d="M269.8589,89.4018 C268.7219,89.4018 268.1549,88.8348 268.1549,87.6418 L268.1549,30.4688 C268.1549,29.3318 268.7219,28.7088 269.8589,28.7088 L277.1249,28.7088 C278.2619,28.7088 278.8859,29.3318 278.8859,30.5818 L279.1129,37.3948 C282.8609,30.6378 288.5959,27.2318 296.3169,27.2318 C304.8909,27.2318 310.7949,31.0928 314.0299,38.8718 C317.6649,31.1488 323.9659,27.2878 332.9939,27.2878 C339.4099,27.2878 344.4069,29.3888 347.9839,33.5348 C351.5609,37.6788 353.3209,43.6978 353.3209,51.5318 L353.3209,87.6418 C353.3209,88.7778 352.7519,89.4018 351.6169,89.4018 L343.7809,89.4018 C342.7029,89.4018 342.1919,88.8348 342.1919,87.6418 L342.1919,53.2348 C342.1919,42.7888 338.1039,37.5078 329.9289,37.5078 C325.7849,37.5078 322.4909,38.9278 320.0489,41.7098 C317.6069,44.4928 316.3599,48.3528 316.3599,53.2348 L316.3599,87.6418 C316.3599,88.7778 315.7899,89.4018 314.7679,89.4018 L306.8769,89.4018 C305.7419,89.4018 305.1749,88.8348 305.1749,87.6418 L305.1749,53.2348 C305.1749,48.1818 304.0939,44.3218 301.8799,41.5958 C299.6669,38.8718 296.6009,37.5078 292.5129,37.5078 C288.3689,37.5078 285.1319,38.8718 282.8039,41.6538 C280.4769,44.4338 279.2839,48.2968 279.2839,53.2348 L279.2839,87.6418 C279.2839,88.7778 278.7729,89.4018 277.6949,89.4018 L269.8589,89.4018 Z" id="Fill-12" fill="#274559"></path>
      <path d="M401.6362,90.8779 C392.6662,90.8779 385.1152,87.8119 379.0382,81.7369 C372.9632,75.6049 369.9562,68.0529 369.9562,58.9699 C369.9562,49.8849 372.9632,42.3329 378.9832,36.3159 C385.0012,30.2969 392.5512,27.2879 401.6362,27.2879 C411.2882,27.2879 418.8972,30.6959 424.5172,37.5659 C425.2552,38.5289 425.2552,39.4389 424.5172,40.1769 L420.2022,44.2649 C419.2932,45.2299 418.3292,45.2299 417.3652,44.2649 C413.4462,39.9499 407.8822,37.5069 402.0342,37.5659 C395.9042,37.5659 390.8492,39.5509 386.8742,43.5829 C382.9002,47.6139 380.8562,52.7239 380.8562,58.9699 C380.8562,65.2149 382.8432,70.3829 386.8742,74.4119 C390.8492,78.4439 396.0152,80.4879 402.2602,80.4309 C407.9952,80.5439 413.5032,78.2159 417.3652,74.0159 C418.4432,72.9379 419.4072,72.8789 420.3162,73.7889 L424.6302,77.9889 C425.3682,78.7269 425.3682,79.5799 424.6302,80.4879 C419.0092,87.4139 411.3442,90.8779 401.6362,90.8779" id="Fill-14" fill="#274559"></path>
      <path d="M53.2002,35.748 C48.3742,30.524 42.0152,27.743 34.1792,27.345 L34.1792,36.883 C38.7782,37.225 42.5822,38.814 45.5922,41.767 C48.9412,45.06 50.7582,49.432 51.1002,54.881 L23.6202,54.881 L23.6202,63.172 L55.9262,63.172 C57.9112,63.172 59.2192,62.602 59.9572,61.524 C60.6372,60.389 60.9792,58.573 60.9792,56.018 C61.1482,48.466 58.3102,41.198 53.2002,35.748" id="Fill-16" fill="#274559"></path>
      <path d="M473.2886,27.5151 L473.2886,38.2451 C483.5636,39.6071 491.5146,48.4101 491.5146,59.0831 C491.5146,69.7571 483.5636,78.5561 473.2886,79.9201 L473.2886,90.6501 C489.4706,89.2301 502.1856,75.6611 502.1856,59.0831 C502.1856,42.5041 489.4706,28.9351 473.2886,27.5151" id="Fill-18" fill="#4DC7E4"></path>
      <g id="Group-22" transform="translate(0.000000, 26.878400)">
        <mask id="mask-4" fill="white">
          <use xlink:href="#path-3"></use>
        </mask>
        <g id="Clip-21"></g>
        <path d="M10.1069,32.2046 C10.1069,25.9586 12.2069,20.2246 16.0679,16.2496 C19.2479,13.0146 23.4489,10.9706 27.9349,10.3456 L27.9349,0.5246 C20.7249,1.0356 13.9109,4.2696 8.9139,9.4946 C2.9529,15.5696 -0.0001,23.1196 -0.0001,32.2046 C-0.0001,41.2896 2.9529,48.8396 8.9139,54.9146 C13.9669,60.1396 20.7249,63.3176 27.9349,63.8846 L27.9349,54.5746 C23.5069,53.9496 19.0769,51.1666 15.9549,47.9326 C12.0379,43.9006 10.1069,38.5636 10.1069,32.2046" id="Fill-20" fill="#4DC7E4" mask="url(#mask-4)"></path>
      </g>
    </g>
  </g>
</svg>
