<?xml version="1.0" encoding="utf-8"?>
<!-- Generator: Adobe Illustrator 29.7.1, SVG Export Plug-In . SVG Version: 9.03 Build 0)  -->
<svg version="1.0" id="FA" xmlns="http://www.w3.org/2000/svg" xmlns:xlink="http://www.w3.org/1999/xlink" x="0px" y="0px"
	 viewBox="0 0 613.1 158.3" style="enable-background:new 0 0 613.1 158.3;" xml:space="preserve">
<style type="text/css">
	.st0{fill:#034A9B;}
	.st1{fill:#B8BABC;}
</style>
<g>
	<path class="st0" d="M218.2,63.2H217c-0.6-2.2-1.2-4.4-3.4-5.3c-2.2-1-5.1-0.9-7.6-0.9c-2.1,0-3-0.1-3.6,0.3
		c-0.3,0.2-0.4,1.2-0.4,2.6v11.4c7,0.3,8-2.5,8.3-6.2h1.2c-0.1,2.3-0.1,4.7-0.2,6.9c0.1,2.1,0.2,4.2,0.2,6.4h-1.1
		c-0.7-5.4-3.4-5.5-8.3-5.5v6.5c0,1.6,0,5.4,0.5,6.7c0.8,2.1,3.3,1.7,5.1,1.8v1.2c-2.6-0.1-5.3-0.2-7.9-0.2
		c-2.6,0.1-5.2,0.2-7.9,0.2V88c1.7,0,3.7,0,4.4-1.8c0.5-1.4,0.5-5.2,0.5-6.8V64.9c0-1.7,0-5.5-0.5-6.8c-0.7-1.8-2.7-1.8-4.4-1.8
		v-1.2c3.1,0.1,6.2,0.2,9.2,0.2c5.5-0.1,11-0.2,16.4-0.2L218.2,63.2z"/>
	<path class="st0" d="M224.3,64.9c0-1.7,0-5.5-0.5-6.8c-0.7-1.8-2.7-1.8-4.4-1.8v-1.2c2.4,0.1,4.9,0.2,7.3,0.2
		c2.6-0.1,5.2-0.2,7.7-0.2v1.2c-1.7,0-3.7,0-4.4,1.8c-0.5,1.4-0.5,5.2-0.5,6.8v14.5c0,1.7,0,5.5,0.5,6.8c0.7,1.8,2.7,1.8,4.4,1.8
		v1.2c-2.4-0.1-4.9-0.2-7.3-0.2c-2.5,0.1-5.2,0.2-7.7,0.2V88c1.7,0,3.7,0,4.4-1.8c0.5-1.4,0.5-5.2,0.5-6.8V64.9z"/>
	<path class="st0" d="M266.2,84.9c1.7,1.9,2.4,2.6,5,3v1.2c-1.6-0.1-3-0.2-4.6-0.2c-1.3,0.1-2.5,0.2-3.8,0.2l-2.4-2.9l-8.5-10.6
		c-1.7-2-1.5-2.2-4.2-2.2v6.1c0,1.7,0,5.5,0.5,6.8c0.6,1.8,2.7,1.8,4.4,1.8v1.2c-2.3-0.1-4.8-0.2-7.2-0.2c-2.5,0.1-5.1,0.2-7.7,0.2
		V88c1.7,0,3.8,0,4.4-1.8c0.5-1.4,0.5-5.2,0.5-6.8V64.9c0-1.7,0-5.5-0.5-6.8c-0.6-1.8-2.7-1.8-4.4-1.8v-1.2c2.9,0.1,5.9,0.2,8.8,0.2
		c2.2-0.1,4.4-0.2,6.6-0.2c5.9,0,11.7,1.4,11.7,8.4c0,5.6-4.2,8.3-9.3,8.8L266.2,84.9z M247.6,71.9c6.4,0,11.1-0.2,11.1-7.6
		c0-4.5-2.5-7.7-7.1-7.7c-0.6,0-2.8-0.2-3.3,0.1c-0.7,0.3-0.6,1.3-0.6,1.9V71.9z"/>
	<path class="st0" d="M271.2,78.7h1.2c1,5.2,3.8,9.5,9.7,9.5c4,0,7.3-2.2,7.3-6.4c0-4.7-4-6.6-7.8-8c-4.7-1.8-9.6-4.2-9.6-10.1
		s4.6-9.2,10.2-9.2c2.8,0,5.5,1,7.7,2.6l1.2-2h0.6l0.3,8.9h-1.2c-1.2-4.2-3.6-8.1-8.5-8.1c-3.3,0-6,2.1-6,5.5c0,4,3.6,5.5,6.8,6.7
		c5.3,2.2,11.2,4.9,11.2,11.5s-6.3,10-12.2,10c-3.5,0-6.2-1-9-3l-1.3,2.2h-0.6L271.2,78.7L271.2,78.7z"/>
	<path class="st0" d="M326.6,63.2h-1.4c-0.3-5-2.2-6.4-7-6.4c-1.9,0-5-0.3-5,1.4v24.3c0,3.8,0.7,5.2,5.7,5.5v1.2
		c-2.8-0.1-5.7-0.2-8.5-0.2c-2.7,0.1-5.4,0.2-8.1,0.2v-1.2c5-0.2,5.7-1.7,5.7-5.5V58.2c0-1.6-2.2-1.4-4.3-1.4
		c-5.1,0-7.5,0.3-7.7,6.4h-1.2v-8h31.5L326.6,63.2z"/>
	<path class="st0" d="M347.8,78c-0.8,2-2.4,5.8-2.4,7.7c0,2.2,2.6,2.1,4.1,2.2v1.2c-1.9-0.1-3.7-0.2-5.7-0.2
		c-1.8,0.1-3.5,0.2-5.3,0.2v-1.2c2.7-0.3,3.9-1.2,4.9-3.6c1.5-3.3,2.8-6.6,4.2-9.8l7.8-20.1h1.8l10.4,26c0.6,1.4,1.8,4.5,2.6,5.7
		c1.2,1.5,2.6,1.7,4.4,1.9v1.2c-2.4-0.1-4.9-0.2-7.2-0.2c-2.4,0.1-5,0.2-7.4,0.2v-1.2c1.5-0.1,3.9,0.1,3.9-2c0-1.3-0.6-2.8-1-4
		l-2-5.3h-12.6L347.8,78z M360.3,75l-5.7-14.5L348.9,75H360.3z"/>
	<path class="st0" d="M401.2,63.2h-1.4c-0.3-5-2.2-6.4-7-6.4c-1.9,0-5-0.3-5,1.4v24.3c0,3.8,0.7,5.2,5.7,5.5v1.2
		c-2.8-0.1-5.7-0.2-8.5-0.2c-2.7,0.1-5.4,0.2-8.1,0.2v-1.2c5-0.2,5.7-1.7,5.7-5.5V58.2c0-1.6-2.2-1.4-4.3-1.4
		c-5.1,0-7.5,0.3-7.7,6.4h-1.2v-8h31.5L401.2,63.2z"/>
	<path class="st0" d="M407.6,64.9c0-1.7,0-5.5-0.5-6.8c-0.7-1.8-2.7-1.8-4.4-1.8v-1.2c2.4,0.1,4.9,0.2,7.3,0.2
		c2.6-0.1,5.2-0.2,7.8-0.2v1.2c-1.7,0-3.7,0-4.4,1.8c-0.5,1.4-0.5,5.2-0.5,6.8v15.2c0,6.6,1,7.6,7.5,7.6c2.4,0,5.2,0.1,7.2-1.3
		c2.5-1.6,2.8-3.5,3.3-6.4h1.3l-0.5,9.1c-0.9-0.1-1.8-0.1-2.6-0.2c-8.8,0.2-17.7,0.2-26.5,0.2V88c1.7,0,3.7,0,4.4-1.8
		c0.5-1.4,0.5-5.2,0.5-6.8L407.6,64.9L407.6,64.9z"/>
	<path class="st0" d="M441.8,78c-0.8,2-2.4,5.8-2.4,7.7c0,2.2,2.6,2.1,4.1,2.2v1.2c-1.9-0.1-3.7-0.2-5.7-0.2
		c-1.8,0.1-3.5,0.2-5.3,0.2v-1.2c2.7-0.3,3.9-1.2,4.9-3.6c1.5-3.3,2.8-6.6,4.2-9.8l7.8-20.1h1.8l10.4,26c0.6,1.4,1.8,4.5,2.6,5.7
		c1.2,1.5,2.6,1.7,4.4,1.9v1.2c-2.4-0.1-4.9-0.2-7.2-0.2c-2.4,0.1-5,0.2-7.4,0.2v-1.2c1.5-0.1,3.9,0.1,3.9-2c0-1.3-0.6-2.8-1-4
		l-2-5.3h-12.6L441.8,78z M454.2,75l-5.7-14.5L442.9,75H454.2z"/>
	<path class="st0" d="M475.5,59.4c-1.6-2.2-2.8-3-5.6-3v-1.2c1.7,0.1,3.2,0.2,4.9,0.2c1.4-0.1,2.7-0.2,4-0.2l21.6,26.4h0.1V67.3
		c0-2.2,0-5.8-0.5-7.9c-0.6-2.8-2-2.6-4.6-3v-1.2c1.9,0.1,3.7,0.2,5.7,0.2c1.8-0.1,3.5-0.2,5.5-0.2v1.2c-1.9,0.2-3.2,0.1-3.9,2.2
		c-0.5,1.7-0.6,6.9-0.6,9v22.1h-1.6c-1.2-1.4-2.2-2.8-3.4-4.2l-20-24.3h-0.1v17.2c0,1.9,0,5.8,0.8,7.4c0.9,2,2.5,1.9,4.5,2.1v1.2
		c-2-0.1-3.9-0.2-5.9-0.2c-1.9,0.1-3.8,0.2-5.7,0.2v-1.2c2-0.2,3.9-0.3,4.4-2.5c0.4-1.9,0.4-5.1,0.4-7L475.5,59.4L475.5,59.4z"/>
	<path class="st0" d="M540.1,63.2h-1.4c-0.3-5-2.2-6.4-7-6.4c-1.9,0-5-0.3-5,1.4v24.3c0,3.8,0.7,5.2,5.7,5.5v1.2
		c-2.8-0.1-5.7-0.2-8.5-0.2c-2.7,0.1-5.4,0.2-8.1,0.2v-1.2c5-0.2,5.7-1.7,5.7-5.5V58.2c0-1.6-2.2-1.4-4.3-1.4
		c-5.1,0-7.5,0.3-7.7,6.4h-1.2v-8h31.5L540.1,63.2z"/>
	<path class="st0" d="M546.6,64.9c0-1.7,0-5.5-0.5-6.8c-0.7-1.8-2.7-1.8-4.4-1.8v-1.2c2.4,0.1,4.9,0.2,7.3,0.2
		c2.6-0.1,5.2-0.2,7.7-0.2v1.2c-1.7,0-3.7,0-4.4,1.8c-0.5,1.4-0.5,5.2-0.5,6.8v14.5c0,1.7,0,5.5,0.5,6.8c0.7,1.8,2.7,1.8,4.4,1.8
		v1.2c-2.4-0.1-4.9-0.2-7.3-0.2c-2.5,0.1-5.2,0.2-7.7,0.2V88c1.7,0,3.7,0,4.4-1.8c0.5-1.4,0.5-5.2,0.5-6.8V64.9z"/>
	<path class="st0" d="M587.2,55.4h0.8l0.4,10.1h-1.2c-0.9-5.7-4.9-9.7-10.9-9.7c-9.2,0-11.9,9.1-11.9,16.7c0,7.7,2.9,15.9,12,15.9
		c7.1,0,9.8-5.1,11.3-11.2h0.9v11.2H588l-1.3-2.6c-3.4,2.7-6.9,3.8-11.3,3.8c-10.4,0-17.5-6.7-17.5-17.1s7.5-17.9,17.9-17.9
		c4.2,0,6.8,1,10.4,3.1L587.2,55.4z"/>
</g>
<g>
	<path class="st1" d="M18.6,139.8c-0.8-1.5-2.9-5.7-2.9-15.2c0-54.5,62.7-102.4,75.7-107.4c0.6-0.2,1.2,0,1.5,0.4
		c0.2,0.4,0.1,0.8-0.3,1.1l0,0C58.3,44.7,41,84.6,31.1,114.7c-3.9,12-6.8,19.9-10.2,25.2v0.1c-0.3,0.5-1,0.7-1.6,0.4
		C18.9,140.2,18.7,140,18.6,139.8z"/>
	<path class="st1" d="M172.9,139.8c0.8-1.5,2.9-5.7,2.9-15.2c0-54.5-62.7-102.4-75.7-107.4c-0.6-0.2-1.2,0-1.5,0.4
		c-0.2,0.4-0.1,0.8,0.3,1.1l0,0c34.3,25.9,51.6,65.8,61.6,95.9c3.9,12,6.8,19.9,10.2,25.2v0.1c0.3,0.5,1,0.7,1.6,0.4
		C172.7,140.2,172.8,140,172.9,139.8z"/>
</g>
<g>
	<path class="st0" d="M245.5,102.4h6c1.1,0,2,0.2,2.6,0.5s1.3,0.7,1.7,1.1c0.4,0.5,0.7,1,0.9,1.6c0.2,0.6,0.2,1.1,0.2,1.7
		c0,0.5-0.1,1.1-0.2,1.7c-0.2,0.6-0.5,1.1-0.9,1.6c-0.4,0.5-1,0.8-1.7,1.1s-1.6,0.5-2.6,0.5h-3.6v7.4h-2.2L245.5,102.4L245.5,102.4z
		 M247.8,109.8h3c0.5,0,0.9,0,1.4-0.1c0.4-0.1,0.8-0.2,1.2-0.4c0.3-0.2,0.6-0.5,0.8-0.8c0.2-0.4,0.3-0.8,0.3-1.4
		c0-0.6-0.1-1.1-0.3-1.4c-0.2-0.4-0.5-0.6-0.8-0.8c-0.3-0.2-0.7-0.3-1.2-0.4c-0.4-0.1-0.9-0.1-1.4-0.1h-3V109.8z"/>
	<path class="st0" d="M267,102.4h6c1.1,0,2,0.2,2.6,0.5s1.3,0.7,1.7,1.1c0.4,0.5,0.7,1,0.9,1.6s0.2,1.1,0.2,1.7
		c0,0.6-0.1,1.1-0.3,1.6c-0.2,0.5-0.5,1-0.8,1.4c-0.4,0.4-0.8,0.8-1.3,1c-0.5,0.3-1.1,0.5-1.8,0.5l4.8,7.7h-2.8l-4.3-7.4h-2.5v7.4
		h-2.2L267,102.4L267,102.4z M269.3,109.8h3c0.5,0,0.9,0,1.4-0.1c0.4-0.1,0.8-0.2,1.2-0.4c0.3-0.2,0.6-0.5,0.8-0.8
		c0.2-0.4,0.3-0.8,0.3-1.4c0-0.6-0.1-1.1-0.3-1.4c-0.2-0.4-0.5-0.6-0.8-0.8c-0.3-0.2-0.7-0.3-1.2-0.4c-0.4-0.1-0.9-0.1-1.4-0.1h-3
		V109.8z"/>
	<path class="st0" d="M289.2,102.4h2.2v16.9h-2.2V102.4z"/>
	<path class="st0" d="M301.2,102.4h2.6l5,13.8l0,0l5.2-13.8h2.5l-6.6,16.9h-2.2L301.2,102.4z"/>
	<path class="st0" d="M330.3,102.4h2.1l7.2,16.9H337l-1.7-4.2h-8l-1.7,4.2H323L330.3,102.4z M334.4,113.2l-3.1-7.7l0,0l-3.2,7.7
		H334.4z"/>
	<path class="st0" d="M351.4,104.6h-5.5v-2.2h13.2v2.2h-5.5v14.8h-2.2L351.4,104.6L351.4,104.6z"/>
	<path class="st0" d="M369,102.4h10.9v2.2h-8.6v5h8v2.2h-8v5.4h9v2.2h-11.3L369,102.4L369,102.4z"/>
	<path class="st0" d="M402.4,102.4h2.3l3.7,13.5l0,0l4-13.5h2.6l4,13.5l0,0l3.7-13.5h2.3l-4.9,16.9h-2.4l-4.1-13.8l0,0l-4,13.8h-2.4
		L402.4,102.4z"/>
	<path class="st0" d="M435.1,102.4h11v2.2h-8.6v5h8v2.2h-8v5.4h9v2.2h-11.3L435.1,102.4L435.1,102.4z"/>
	<path class="st0" d="M463.1,102.4h2.1l7.2,16.9h-2.6l-1.7-4.2h-8l-1.7,4.2h-2.6L463.1,102.4z M467.2,113.2l-3.1-7.7l0,0l-3.2,7.7
		H467.2z"/>
	<path class="st0" d="M482.2,102.4h2.2v14.8h7.7v2.2h-10V102.4z"/>
	<path class="st0" d="M504,104.6h-5.5v-2.2h13.2v2.2h-5.5v14.8H504V104.6z"/>
	<path class="st0" d="M521.7,102.4h2.2v7h8.8v-7h2.2v16.9h-2.2v-7.7H524v7.7h-2.2V102.4z"/>
</g>
</svg>
