<svg viewBox="0 0 317.39 42.37" xmlns="http://www.w3.org/2000/svg"><defs><style>.cls-1{fill:#fff;}</style></defs><g data-name="Layer 2" id="Layer_2"><g data-name="Layer 2" id="Layer_2-2"><polygon points="6.57 41.21 0 41.21 0 26.19 6.19 20 12.76 20 12.76 35.02 6.57 41.21" class="cls-1"></polygon><polygon points="28.25 41.21 21.68 41.21 21.68 15.19 27.87 9 34.44 9 34.44 35.02 28.25 41.21" class="cls-1"></polygon><polygon points="49.93 41.21 43.36 41.21 43.36 6.19 49.55 0 56.12 0 56.12 35.02 49.93 41.21" class="cls-1"></polygon><path d="M77,32.58V31a11.93,11.93,0,0,0,2.47-.35.7.7,0,0,0,.29-.36,13.23,13.23,0,0,0,.26-3c.06-2.65.1-4.73.1-6.26q0-3.07-.08-7.83a20.67,20.67,0,0,0-.35-4.34.64.64,0,0,0-.3-.37A9.82,9.82,0,0,0,77,8.1V6.54c2.56.09,4.21.13,5,.13l9.3-.13a12.19,12.19,0,0,1,4.41.59A4.62,4.62,0,0,1,97.84,9a5.58,5.58,0,0,1,.81,3,6.22,6.22,0,0,1-1.29,3.9,10.49,10.49,0,0,1-4.48,3l4,6,3.08,4.56a5.93,5.93,0,0,0,1.3,1.35,3.27,3.27,0,0,0,1.39.25v1.43l-1.09,0c-3.14,0-5.17.06-6.07.11Q93.84,30,90.62,25.1L86.8,19.29a3.61,3.61,0,0,0,.27-.67,8.53,8.53,0,0,0,1.1.1,5.27,5.27,0,0,0,3.39-1.4,4.87,4.87,0,0,0,1.67-4,4.58,4.58,0,0,0-1.32-3.49A5.58,5.58,0,0,0,88,8.6c-.56,0-1.31.05-2.27.13l-.12,5.48-.16,7c0,1.57.07,3.58.19,6a18.07,18.07,0,0,0,.29,3.1.78.78,0,0,0,.41.39A8.47,8.47,0,0,0,88.8,31v1.56q-3.33-.13-5.91-.13Q80.15,32.45,77,32.58Z" class="cls-1"></path><path d="M100.9,16.45V14.93c2.84.08,4.66.11,5.45.11,1.1,0,2.66,0,4.66-.11v1.52a7.39,7.39,0,0,0-2.05.25.62.62,0,0,0-.32.59,33.17,33.17,0,0,0,1.81,5.13l2,5.12,1.72-4q2.33-5.43,2.32-6.27a.55.55,0,0,0-.32-.54,7.26,7.26,0,0,0-2-.24V14.93l1.17.05,2.49.06c.44,0,1.61,0,3.49-.11v1.52a3.53,3.53,0,0,0-1.49.28,1.17,1.17,0,0,0-.42.41q-.3.41-2.34,5.12l-3.45,7.9-3.21,7.3a13.07,13.07,0,0,1-2,3.14,5.77,5.77,0,0,1-1.88,1.34,5.84,5.84,0,0,1-2.29.43,6.7,6.7,0,0,1-2.67-.62,29.94,29.94,0,0,0,.65-3.57l.5-.17a3.33,3.33,0,0,0,2.54,1.21,2.77,2.77,0,0,0,2-.8,19.39,19.39,0,0,0,2.48-4.61l-4.14-10.5-2.28-5.63a1.93,1.93,0,0,0-.64-.9A5.62,5.62,0,0,0,100.9,16.45Z" class="cls-1"></path><path d="M134.28,21.2h-1.52a9.74,9.74,0,0,0-.32-2.54,2.23,2.23,0,0,0-1.09-.95,4.74,4.74,0,0,0-2.12-.42,3.47,3.47,0,0,0-2.88,1.12q-.9,1.13-.9,4.05a8.64,8.64,0,0,0,1.69,5.72,5.38,5.38,0,0,0,4.34,2,8.12,8.12,0,0,0,1.77-.17,6.58,6.58,0,0,0,1.48-.48L135,30c-.27.59-.52,1.19-.75,1.79a11.4,11.4,0,0,1-2.5.91,10.63,10.63,0,0,1-2.57.31,8.55,8.55,0,0,1-6.3-2.24,8.53,8.53,0,0,1-2.26-6.36,11.67,11.67,0,0,1,.3-2.76,7.8,7.8,0,0,1,.81-2.1,5.6,5.6,0,0,1,1.12-1.4c.25-.2,1.31-.89,3.19-2.06a12.15,12.15,0,0,1,2.4-1.28,6.47,6.47,0,0,1,2-.25,14.12,14.12,0,0,1,2.17.17,13.16,13.16,0,0,1,2.06.5l.31.34A32.89,32.89,0,0,0,134.28,21.2Z" class="cls-1"></path><path d="M136.55,23.75c0-2.93.68-5.13,2.06-6.61,1.64-1.74,4-2.62,7.12-2.62s5.35.7,6.77,2.1,2.14,3.61,2.14,6.63-.82,5.51-2.46,7.19A9.12,9.12,0,0,1,145.34,33q-4.31,0-6.55-2.36C137.29,29,136.55,26.75,136.55,23.75Zm5.14-1.27q0,4.95,1.26,7.05a3.22,3.22,0,0,0,3,1.62,3,3,0,0,0,2.66-1.38c.62-.92.94-2.58.94-5,0-3.33-.39-5.63-1.15-6.9a3.23,3.23,0,0,0-2.95-1.53,3.16,3.16,0,0,0-2.72,1.4Q141.69,19.14,141.69,22.48Z" class="cls-1"></path><path d="M165.51,32.58V31a6.13,6.13,0,0,0,2.75-.35c.2-.15.31-.59.35-1.32.15-2.42.22-5.2.22-8.36q0-3.51-.09-7.53a26.93,26.93,0,0,0-.31-4.63.71.71,0,0,0-.32-.39,9.07,9.07,0,0,0-2.6-.34V6.54c2.17.07,4,.1,5.59.1q3.41,0,7.16,0c1.64,0,3,0,4.16,0,.8,0,1.57,0,2.3.08l.18.38a40.46,40.46,0,0,0-.48,5.46h-1.56l-.15-2a2.18,2.18,0,0,0-.25-1.16,3.31,3.31,0,0,0-1.37-.44,19.28,19.28,0,0,0-3.37-.22c-1.08,0-2.21.06-3.41.17q-.21,3.14-.21,4.44l0,4,0,.85c.74,0,1.64.06,2.69.06a23.76,23.76,0,0,0,3.42-.13.64.64,0,0,0,.42-.3,8.43,8.43,0,0,0,.34-2.34h1.59c0,1.1-.05,2.18-.05,3.26s0,2.63.05,4.85H181a11.35,11.35,0,0,0-.36-2.82.65.65,0,0,0-.46-.31,17.1,17.1,0,0,0-3.62-.24l-2.43.05.08,7.11a12.28,12.28,0,0,0,.26,3,.82.82,0,0,0,.39.39,14.85,14.85,0,0,0,3.09.33v1.56c-2-.09-3.83-.13-5.56-.13Q170.07,32.45,165.51,32.58Z" class="cls-1"></path><path d="M185.68,32.58V31.06a8.77,8.77,0,0,0,2.42-.26c.22-.13.36-.47.42-1.05q.15-1.17.15-5.16c0-1.15,0-2.22-.06-3.2l-.05-2.17a2.25,2.25,0,0,0-.24-1.33c-.15-.17-.57-.26-1.25-.29l-1.39-.05V16.12a23.12,23.12,0,0,0,7.37-1.6l.46.38c-.18,2.36-.28,5.81-.28,10.33,0,2.62.05,4.2.13,4.75a1.09,1.09,0,0,0,.34.74,10.22,10.22,0,0,0,2.43.34v1.52c-2.23-.08-4-.11-5.18-.11C190.3,32.47,188.54,32.5,185.68,32.58Zm5.16-26.93a2.78,2.78,0,0,1,2,.85,2.81,2.81,0,0,1,.85,2.05,2.89,2.89,0,0,1-5.78,0,2.9,2.9,0,0,1,2.9-2.9Z" class="cls-1"></path><path d="M197.46,32.58V31.06a6.85,6.85,0,0,0,2.29-.33,1.42,1.42,0,0,0,.31-1c.08-1.25.11-3.45.11-6.61,0-1.56,0-2.91-.07-4A3.79,3.79,0,0,0,200,17.9a.55.55,0,0,0-.29-.22,15.05,15.05,0,0,0-2.2-.13V16.12a17.46,17.46,0,0,0,3.14-.43,22.06,22.06,0,0,0,3.58-1l.5-.17c.17,0,.26.15.26.43l0,.17c0,.34,0,1.23,0,2.67l2.87-2.41a3,3,0,0,1,1.11-.63,7.48,7.48,0,0,1,2-.23,6.77,6.77,0,0,1,3.22.68,4.21,4.21,0,0,1,1.83,1.88,9,9,0,0,1,.58,3.73c0,.74,0,1.6-.05,2.58-.06,2-.09,3.75-.09,5.21a4.93,4.93,0,0,0,.2,1.73.85.85,0,0,0,.42.45,14,14,0,0,0,2,.28v1.52l-2.28-.08-1.47,0-3.82.11-.21-.24a52.23,52.23,0,0,0,.49-7.25c0-3.15-.2-5.08-.58-5.81a2.77,2.77,0,0,0-2.71-1.42,3.75,3.75,0,0,0-2.19.65,3,3,0,0,0-1.2,1.36,7.12,7.12,0,0,0-.13,1.88q0,6.74,0,7.71c0,.66.14,1.06.32,1.2a6.19,6.19,0,0,0,2.48.4v1.52c-2.15-.08-4-.11-5.45-.11C201.39,32.47,199.79,32.5,197.46,32.58Z" class="cls-1"></path><path d="M237,31.06v1.52l-1.43-.06c-.76,0-1.51-.05-2.27-.05-1.16,0-2.27,0-3.31.11l-.19-.21.19-2.54-3.87,2.9a8.22,8.22,0,0,1-1.83.24,3.91,3.91,0,0,1-3-1.17,4.87,4.87,0,0,1-1.08-3.42c0-1.84.49-3.14,1.47-3.89Q223.55,23,230,21.83a5.7,5.7,0,0,0-.76-3.18,3.67,3.67,0,0,0-3.14-1.36,4.59,4.59,0,0,0-1,.12,5.29,5.29,0,0,0-1.07.38l-.83,2-1.28-.31,0-.84,0-.81,0-.74A24.66,24.66,0,0,1,226,14.86a7.41,7.41,0,0,1,2.53-.34,8.26,8.26,0,0,1,3.56.66,4.37,4.37,0,0,1,2,1.8,6.94,6.94,0,0,1,.63,3.31c0,.61,0,1.69-.07,3.25s-.07,2.91-.07,3.89a16.56,16.56,0,0,0,.13,2.83.71.71,0,0,0,.36.46A8,8,0,0,0,237,31.06Zm-7-7.63A10.89,10.89,0,0,0,225.78,25a2.77,2.77,0,0,0-1,2.23,2.47,2.47,0,0,0,.63,1.79,2.1,2.1,0,0,0,1.58.65A4.24,4.24,0,0,0,230,28Z" class="cls-1"></path><path d="M238.16,32.58V31.06a6.82,6.82,0,0,0,2.28-.33,1.37,1.37,0,0,0,.31-1q.12-1.87.12-6.61c0-1.56,0-2.91-.08-4a3.51,3.51,0,0,0-.15-1.23.55.55,0,0,0-.29-.22,15,15,0,0,0-2.19-.13V16.12a17.38,17.38,0,0,0,3.13-.43,22.06,22.06,0,0,0,3.58-1l.5-.17c.18,0,.26.15.26.43v.17q-.06.51-.06,2.67l2.87-2.41a3,3,0,0,1,1.11-.63,7.58,7.58,0,0,1,2-.23,6.75,6.75,0,0,1,3.22.68,4.21,4.21,0,0,1,1.83,1.88,8.93,8.93,0,0,1,.59,3.73q0,1.11-.06,2.58c-.06,2-.09,3.75-.09,5.21a5.18,5.18,0,0,0,.2,1.73.85.85,0,0,0,.42.45,14.21,14.21,0,0,0,2,.28v1.52l-2.28-.08-1.47,0-3.82.11-.2-.24a53.83,53.83,0,0,0,.48-7.25c0-3.15-.19-5.08-.58-5.81a2.76,2.76,0,0,0-2.7-1.42,3.71,3.71,0,0,0-2.19.65,3.1,3.1,0,0,0-1.21,1.36,7.12,7.12,0,0,0-.13,1.88q0,6.74.06,7.71c0,.66.14,1.06.31,1.2a6.22,6.22,0,0,0,2.49.4v1.52c-2.16-.08-4-.11-5.46-.11C242.08,32.47,240.48,32.5,238.16,32.58Z" class="cls-1"></path><path d="M274.15,21.2h-1.52a9.74,9.74,0,0,0-.32-2.54,2.25,2.25,0,0,0-1.08-.95,4.81,4.81,0,0,0-2.13-.42,3.47,3.47,0,0,0-2.88,1.12q-.9,1.13-.9,4.05A8.64,8.64,0,0,0,267,28.18a5.39,5.39,0,0,0,4.34,2,8.21,8.21,0,0,0,1.78-.17,6.67,6.67,0,0,0,1.47-.48l.31.41c-.27.59-.52,1.19-.75,1.79a11.4,11.4,0,0,1-2.5.91,10.63,10.63,0,0,1-2.57.31,8.55,8.55,0,0,1-6.3-2.24,8.57,8.57,0,0,1-2.26-6.36,11.67,11.67,0,0,1,.3-2.76,7.8,7.8,0,0,1,.81-2.1,5.6,5.6,0,0,1,1.12-1.4c.25-.2,1.31-.89,3.19-2.06a12.15,12.15,0,0,1,2.4-1.28,6.51,6.51,0,0,1,2-.25,14.12,14.12,0,0,1,2.17.17,13.16,13.16,0,0,1,2.06.5l.31.34A32.89,32.89,0,0,0,274.15,21.2Z" class="cls-1"></path><path d="M276.83,32.58V31.06a8.91,8.91,0,0,0,2.42-.26c.21-.13.35-.47.41-1.05q.15-1.17.15-5.16c0-1.15,0-2.22-.05-3.2l-.06-2.17a2.36,2.36,0,0,0-.23-1.33,2.05,2.05,0,0,0-1.25-.29l-1.39-.05V16.12a23.06,23.06,0,0,0,7.36-1.6l.47.38c-.19,2.36-.28,5.81-.28,10.33a45.91,45.91,0,0,0,.13,4.75,1,1,0,0,0,.34.74,10,10,0,0,0,2.42.34v1.52c-2.23-.08-4-.11-5.17-.11C281.44,32.47,279.68,32.5,276.83,32.58ZM282,5.65a2.89,2.89,0,0,1,2.88,2.9,2.77,2.77,0,0,1-.84,2,2.91,2.91,0,0,1-4.09,0,2.77,2.77,0,0,1-.84-2A2.89,2.89,0,0,1,282,5.65Z" class="cls-1"></path><path d="M305.72,31.06v1.52l-1.44-.06c-.75,0-1.51-.05-2.27-.05-1.16,0-2.27,0-3.31.11l-.18-.21.18-2.54-3.87,2.9A8.22,8.22,0,0,1,293,33a3.93,3.93,0,0,1-3-1.17,4.92,4.92,0,0,1-1.07-3.42c0-1.84.48-3.14,1.46-3.89q1.89-1.48,8.35-2.66a5.54,5.54,0,0,0-.76-3.18,3.65,3.65,0,0,0-3.14-1.36,4.66,4.66,0,0,0-1,.12,5,5,0,0,0-1.06.38l-.84,2-1.28-.31,0-.84,0-.81,0-.74a25,25,0,0,1,4.09-2.21,7.31,7.31,0,0,1,2.52-.34,8.23,8.23,0,0,1,3.56.66,4.34,4.34,0,0,1,2,1.8,6.94,6.94,0,0,1,.63,3.31c0,.61,0,1.69-.08,3.25s-.07,2.91-.07,3.89a16.56,16.56,0,0,0,.13,2.83.74.74,0,0,0,.36.46A8,8,0,0,0,305.72,31.06Zm-7-7.63A10.89,10.89,0,0,0,294.47,25a2.77,2.77,0,0,0-1,2.23,2.47,2.47,0,0,0,.63,1.79,2.13,2.13,0,0,0,1.59.65,4.24,4.24,0,0,0,3-1.66Z" class="cls-1"></path><path d="M306.85,7.7V6.62c1.75-.24,3.14-.48,4.16-.72a26.81,26.81,0,0,0,3.28-1.06l.48.41q-.27,6.63-.28,18.52c0,1.6,0,3.22.08,4.85a6.35,6.35,0,0,0,.17,1.81,1,1,0,0,0,.44.4,9.06,9.06,0,0,0,2.21.23v1.52l-1.95-.06c-1.21,0-2.23-.05-3.05-.05l-5.54.11V31.06l1.37-.08a1.74,1.74,0,0,0,1.2-.34,5.38,5.38,0,0,0,.32-2.33c.06-1.88.1-4.53.1-8l0-7.93a21.9,21.9,0,0,0-.21-4.09.61.61,0,0,0-.27-.34A8.8,8.8,0,0,0,306.85,7.7Z" class="cls-1"></path></g></g></svg>